<svg width="51" height="51" viewBox="0 0 51 51" fill="none" xmlns="http://www.w3.org/2000/svg">
<path fill-rule="evenodd" clip-rule="evenodd" d="M36.8804 37.3331C36.2261 36.8136 36.1167 35.8621 36.6362 35.2078L37.501 34.1184L38.2312 33.0129L38.8622 31.848L39.3893 30.6326L39.8085 29.3758L40.1165 28.0872L40.3111 26.7768L40.3907 25.4543L40.3548 24.1299L40.2035 22.8138L39.9381 21.5158L39.5606 20.2458L39.0739 19.0137L38.4816 17.8286L37.7883 16.6996L36.9992 15.6354L36.1204 14.644L35.1585 13.7329L34.1209 12.9092L33.0154 12.179L31.8505 11.548L30.6351 11.0209L29.3783 10.6017L28.0898 10.2937L26.7793 10.0991L25.4568 10.0195L24.1324 10.0554L22.8163 10.2067L21.5183 10.4721L20.2483 10.8496L19.0162 11.3363L17.8311 11.9286L16.7021 12.6219L15.6379 13.411L14.6465 14.2898L13.7354 15.2517L12.9117 16.2893L12.1816 17.3947L11.5505 18.5597L11.0234 19.7751L10.6042 21.0319L10.2962 22.3205L10.1016 23.631L10.022 24.9534L10.0579 26.2778L10.2092 27.5939L10.4746 28.8919L10.8521 30.1619L11.3388 31.3941L11.9311 32.5791L12.6244 33.7081L13.4528 34.8254C13.9504 35.4965 13.8097 36.4439 13.1386 36.9415C12.4675 37.4391 11.5201 37.2984 11.0225 36.6273L10.1154 35.4039L9.28385 34.0498L8.57346 32.6284L7.98965 31.1505L7.53688 29.6274L7.21858 28.0706L7.03718 26.4919L6.99406 24.9034L7.08954 23.3173L7.32291 21.7455L7.69238 20.2L8.19514 18.6926L8.82737 17.2347L9.58425 15.8375L10.46 14.5116L11.448 13.2671L12.5407 12.1134L13.7298 11.0593L15.0063 10.1129L16.3604 9.28133L17.7818 8.57095L19.2597 7.98714L20.7828 7.53437L22.3397 7.21607L23.9183 7.03467L25.5068 6.99155L27.0929 7.08703L28.6647 7.3204L30.2102 7.68987L31.7176 8.19263L33.1755 8.82486L34.5727 9.58174L35.8986 10.4575L37.1431 11.4455L38.2968 12.5382L39.3509 13.7273L40.2973 15.0038L41.1289 16.3579L41.8393 17.7793L42.4231 19.2572L42.8758 20.7803L43.1941 22.3372L43.3755 23.9158L43.4187 25.5043L43.3232 27.0904L43.0898 28.6622L42.7203 30.2077L42.2176 31.7151L41.5854 33.173L40.8285 34.5702L39.9527 35.8961L39.0058 37.0889C38.4863 37.7432 37.5348 37.8526 36.8804 37.3331Z" fill="#DFF6F3"/>
<path fill-rule="evenodd" clip-rule="evenodd" d="M33.4225 39.084C33.2252 39.8958 32.4072 40.394 31.5954 40.1967C30.79 40.001 29.9445 40.293 29.4316 40.9441L29.0308 41.4529L27.8528 40.5249L29.0308 41.4529C26.9281 44.122 22.8611 44.0549 20.8476 41.3179L22.0661 40.4215L20.8476 41.3179L20.4637 40.7961C19.9726 40.1286 19.1372 39.8088 18.3258 39.9778C17.5079 40.1482 16.7068 39.6234 16.5363 38.8055C16.3659 37.9876 16.8908 37.1864 17.7087 37.016C19.6792 36.6054 21.708 37.382 22.9008 39.0033L21.6822 39.8997L22.9008 39.0033L23.2846 39.5251C24.1137 40.6521 25.7884 40.6797 26.6542 39.5807L27.055 39.0718C28.3006 37.4907 30.354 36.7815 32.3098 37.2568C33.1216 37.4541 33.6198 38.2722 33.4225 39.084Z" fill="#A3E6EB"/>
</svg>
